<svg width="100" height="100" viewBox="0 0 100 100" fill="none" xmlns="http://www.w3.org/2000/svg">
<circle cx="50" cy="50" r="50" fill="#DCDCFF"/>
<path d="M72.8673 43.3467C75.5126 48.7482 76.0147 54.915 74.2769 60.6567C72.5391 66.3985 68.6845 71.3083 63.457 74.4384C58.2295 77.5686 51.9998 78.6973 45.9701 77.6066C39.9404 76.5159 34.5382 73.2833 30.8062 68.5325C27.0742 63.7817 25.2768 57.8496 25.7611 51.8811C26.2453 45.9125 28.9769 40.3307 33.4284 36.2128C37.88 32.095 43.7361 29.733 49.8664 29.5828C55.9968 29.4326 61.9668 31.5048 66.6244 35.3995L72.0262 30.1231C72.3839 29.7739 72.869 29.5777 73.3749 29.5777C73.8807 29.5777 74.3659 29.7739 74.7235 30.1231C75.0812 30.4724 75.2822 30.946 75.2822 31.4399C75.2822 31.9338 75.0812 32.4074 74.7235 32.7567L51.8485 55.0906C51.4909 55.4398 51.0057 55.636 50.4999 55.636C49.994 55.636 49.5089 55.4398 49.1512 55.0906C48.7935 54.7413 48.5926 54.2677 48.5926 53.7738C48.5926 53.2799 48.7935 52.8062 49.1512 52.457L55.7564 46.0081C53.9663 44.8522 51.829 44.32 49.6906 44.4977C47.5522 44.6753 45.5377 45.5524 43.9734 46.9869C42.409 48.4214 41.3863 50.3294 41.0709 52.4021C40.7554 54.4747 41.1656 56.5906 42.2351 58.4073C43.3046 60.224 44.9708 61.6351 46.9639 62.4121C48.957 63.1892 51.1604 63.2868 53.2174 62.6891C55.2744 62.0914 57.0646 60.8334 58.2981 59.1187C59.5317 57.404 60.1364 55.333 60.0144 53.241C60.0004 52.9966 60.0357 52.7519 60.1185 52.5208C60.2013 52.2898 60.3299 52.0769 60.4969 51.8943C60.664 51.7118 60.8662 51.5632 61.0921 51.4569C61.318 51.3507 61.5631 51.2889 61.8135 51.2752C62.319 51.2474 62.8152 51.4169 63.1928 51.7463C63.3798 51.9094 63.532 52.1068 63.6408 52.3274C63.7496 52.5479 63.8129 52.7872 63.8269 53.0317C64.0007 55.9927 63.1345 58.923 61.3714 61.3383C59.6084 63.7536 57.054 65.5092 54.1305 66.315C51.207 67.1208 48.0894 66.9286 45.2929 65.7701C42.4965 64.6116 40.1886 62.5562 38.7507 59.9436C37.3129 57.3309 36.8311 54.3175 37.385 51.4013C37.9389 48.4851 39.4954 45.8408 41.7972 43.9053C44.099 41.9698 47.0083 40.8591 50.0442 40.7566C53.0802 40.6542 56.0611 41.5663 58.4942 43.342L63.9151 38.0493C59.9425 34.8291 54.8913 33.1553 49.7318 33.3496C44.5722 33.5439 39.6681 35.5925 35.9613 39.102C32.2546 42.6114 30.0065 47.3343 29.6489 52.3634C29.2914 57.3925 30.8495 62.3734 34.0241 66.3492C37.1986 70.3251 41.7658 73.0156 46.8483 73.9041C51.9309 74.7925 57.1705 73.8163 61.5607 71.1628C65.951 68.5093 69.1823 64.3657 70.6342 59.5279C72.086 54.69 71.6559 49.499 69.4265 44.9519C69.2085 44.5064 69.1807 43.9946 69.3491 43.5291C69.5176 43.0636 69.8686 42.6825 70.3249 42.4696C70.7811 42.2567 71.3053 42.2295 71.7822 42.394C72.259 42.5585 72.6493 42.9012 72.8673 43.3467Z" fill="#01004D"/>
</svg>
