<svg width="100" height="100" viewBox="0 0 100 100" fill="none" xmlns="http://www.w3.org/2000/svg">
<circle cx="50" cy="50" r="50" fill="#DCDCFF"/>
<path d="M72.375 66.6562H70.4688V28.5312C70.4688 28.0257 70.2679 27.5408 69.9104 27.1833C69.5529 26.8258 69.0681 26.625 68.5625 26.625H55.2188C54.7132 26.625 54.2283 26.8258 53.8708 27.1833C53.5133 27.5408 53.3125 28.0257 53.3125 28.5312V38.0625H41.875C41.3694 38.0625 40.8846 38.2633 40.5271 38.6208C40.1696 38.9783 39.9688 39.4632 39.9688 39.9688V49.5H30.4375C29.9319 49.5 29.4471 49.7008 29.0896 50.0583C28.7321 50.4158 28.5312 50.9007 28.5312 51.4062V66.6562H26.625C26.1194 66.6562 25.6346 66.8571 25.2771 67.2146C24.9196 67.5721 24.7188 68.0569 24.7188 68.5625C24.7188 69.0681 24.9196 69.5529 25.2771 69.9104C25.6346 70.2679 26.1194 70.4688 26.625 70.4688H72.375C72.8806 70.4688 73.3654 70.2679 73.7229 69.9104C74.0804 69.5529 74.2812 69.0681 74.2812 68.5625C74.2812 68.0569 74.0804 67.5721 73.7229 67.2146C73.3654 66.8571 72.8806 66.6562 72.375 66.6562ZM57.125 30.4375H66.6562V66.6562H57.125V30.4375ZM43.7812 41.875H53.3125V66.6562H43.7812V41.875ZM32.3438 53.3125H39.9688V66.6562H32.3438V53.3125Z" fill="#01004D"/>
</svg>
