<svg width="100" height="100" viewBox="0 0 100 100" fill="none" xmlns="http://www.w3.org/2000/svg">
<circle cx="50" cy="50" r="50" fill="#DCDCFF"/>
<path d="M46.9386 56.6293C49.4935 54.9284 51.4331 52.4505 52.4708 49.562C53.5084 46.6735 53.589 43.5277 52.7005 40.5899C51.812 37.6521 50.0017 35.0781 47.5372 33.2488C45.0728 31.4194 42.085 30.4316 39.0158 30.4316C35.9465 30.4316 32.9587 31.4194 30.4943 33.2488C28.0298 35.0781 26.2195 37.6521 25.331 40.5899C24.4425 43.5277 24.5231 46.6735 25.5607 49.562C26.5984 52.4505 28.5381 54.9284 31.0929 56.6293C26.4714 58.3326 22.5246 61.4846 19.8413 65.6149C19.7002 65.8245 19.6023 66.0601 19.5531 66.3078C19.5039 66.5556 19.5044 66.8107 19.5547 67.0583C19.605 67.3059 19.7039 67.541 19.8459 67.75C19.9878 67.959 20.1699 68.1377 20.3815 68.2757C20.5931 68.4137 20.83 68.5083 21.0784 68.5539C21.3269 68.5996 21.582 68.5954 21.8288 68.5416C22.0756 68.4878 22.3093 68.3854 22.5163 68.2405C22.7232 68.0956 22.8993 67.911 23.0342 67.6975C24.7651 65.0354 27.1335 62.8478 29.9245 61.3334C32.7154 59.819 35.8404 59.0258 39.0158 59.0258C42.1911 59.0258 45.3161 59.819 48.1071 61.3334C50.898 62.8478 53.2664 65.0354 54.9973 67.6975C55.2769 68.113 55.7088 68.4018 56.1996 68.5015C56.6904 68.6011 57.2008 68.5036 57.6203 68.23C58.0398 67.9564 58.3347 67.5287 58.4414 67.0393C58.548 66.55 58.4578 66.0383 58.1903 65.6149C55.507 61.4846 51.5601 58.3326 46.9386 56.6293ZM28.5314 44.7343C28.5314 42.6607 29.1463 40.6337 30.2983 38.9095C31.4504 37.1854 33.0878 35.8416 35.0036 35.048C36.9193 34.2545 39.0274 34.0469 41.0612 34.4514C43.0949 34.8559 44.9631 35.8545 46.4293 37.3207C47.8956 38.787 48.8941 40.6551 49.2987 42.6889C49.7032 44.7227 49.4956 46.8307 48.7021 48.7465C47.9085 50.6623 46.5647 52.2997 44.8406 53.4518C43.1164 54.6038 41.0894 55.2187 39.0158 55.2187C36.2361 55.2155 33.5712 54.1099 31.6057 52.1444C29.6402 50.1789 28.5345 47.514 28.5314 44.7343ZM78.6038 68.2527C78.1804 68.5288 77.6646 68.6254 77.17 68.5213C76.6753 68.4172 76.2422 68.1209 75.966 67.6975C74.2373 65.0338 71.8691 62.8453 69.0776 61.3315C66.2861 59.8178 63.16 59.0269 59.9845 59.0312C59.4789 59.0312 58.9941 58.8304 58.6366 58.4729C58.2791 58.1154 58.0783 57.6305 58.0783 57.1249C58.0783 56.6194 58.2791 56.1345 58.6366 55.777C58.9941 55.4195 59.4789 55.2187 59.9845 55.2187C61.5285 55.2172 63.0531 54.8748 64.4494 54.2158C65.8457 53.5568 67.0792 52.5976 68.0618 51.4066C69.0444 50.2156 69.7518 48.8223 70.1336 47.3263C70.5153 45.8302 70.5618 44.2683 70.2699 42.7522C69.978 41.236 69.3549 39.8031 68.445 38.5557C67.535 37.3083 66.3609 36.2773 65.0063 35.5363C63.6517 34.7953 62.1502 34.3626 60.6091 34.2692C59.0679 34.1757 57.5252 34.4238 56.091 34.9958C55.8572 35.0968 55.6054 35.15 55.3507 35.1522C55.096 35.1543 54.8434 35.1054 54.6079 35.0083C54.3724 34.9112 54.1587 34.7678 53.9795 34.5868C53.8004 34.4057 53.6593 34.1905 53.5647 33.954C53.4701 33.7174 53.4238 33.4644 53.4287 33.2097C53.4335 32.9549 53.4894 32.7038 53.593 32.4711C53.6965 32.2383 53.8457 32.0287 54.0316 31.8546C54.2176 31.6804 54.4366 31.5454 54.6756 31.4573C57.9578 30.1483 61.6085 30.1012 64.9235 31.3251C68.2384 32.5489 70.9826 34.9571 72.6268 38.0849C74.2709 41.2127 74.6985 44.8386 73.827 48.2631C72.9555 51.6875 70.8467 54.6679 67.9074 56.6293C72.5288 58.3326 76.4757 61.4846 79.159 65.6149C79.4351 66.0383 79.5317 66.5541 79.4276 67.0488C79.3235 67.5434 79.0272 67.9765 78.6038 68.2527Z" fill="#01004D"/>
</svg>
