<svg width="42" height="42" viewBox="0 0 42 42" fill="none" xmlns="http://www.w3.org/2000/svg">
<path d="M21.0003 0.166748C32.5066 0.166748 41.8337 9.49383 41.8337 21.0001C41.8337 32.5063 32.5066 41.8334 21.0003 41.8334C17.63 41.8379 14.3093 41.0213 11.3253 39.4542L2.38784 41.7813C2.08921 41.8591 1.77543 41.8575 1.47762 41.7767C1.1798 41.6958 0.908274 41.5385 0.689958 41.3204C0.471642 41.1023 0.314113 40.831 0.232983 40.5332C0.151852 40.2355 0.149937 39.9217 0.227428 39.623L2.55243 30.6876C0.981257 27.7005 0.162451 24.3752 0.167011 21.0001C0.167011 9.49383 9.4941 0.166748 21.0003 0.166748ZM23.6087 23.0834H14.2295L14.017 23.098C13.643 23.1495 13.3003 23.3346 13.0522 23.6191C12.8042 23.9037 12.6675 24.2684 12.6675 24.6459C12.6675 25.0234 12.8042 25.3882 13.0522 25.6727C13.3003 25.9573 13.643 26.1424 14.017 26.1938L14.2295 26.2084H23.6087L23.8191 26.1938C24.1931 26.1424 24.5358 25.9573 24.7839 25.6727C25.0319 25.3882 25.1686 25.0234 25.1686 24.6459C25.1686 24.2684 25.0319 23.9037 24.7839 23.6191C24.5358 23.3346 24.1931 23.1495 23.8191 23.098L23.6087 23.0834ZM27.7712 15.7917H14.2295L14.017 15.8063C13.643 15.8578 13.3003 16.0429 13.0522 16.3274C12.8042 16.612 12.6675 16.9767 12.6675 17.3542C12.6675 17.7318 12.8042 18.0965 13.0522 18.381C13.3003 18.6656 13.643 18.8507 14.017 18.9022L14.2295 18.9167H27.7712L27.9837 18.9022C28.3577 18.8507 28.7004 18.6656 28.9484 18.381C29.1965 18.0965 29.3332 17.7318 29.3332 17.3542C29.3332 16.9767 29.1965 16.612 28.9484 16.3274C28.7004 16.0429 28.3577 15.8578 27.9837 15.8063L27.7712 15.7917Z" fill="#01004D"/>
</svg>
