<svg width="262" height="44" viewBox="0 0 262 44" fill="none" xmlns="http://www.w3.org/2000/svg">
<path d="M29.7 34.3C28.3333 34.3 27.2 34.1167 26.3 33.75C25.4 33.3833 24.6333 32.9 24 32.3C23.3667 31.7 22.7667 31.05 22.2 30.35L11.9 17.7C11.4667 17.1667 11.1333 16.8333 10.9 16.7C10.7 16.5333 10.4167 16.4333 10.05 16.4V14.9C13.25 15.1667 15.75 14.7167 17.55 13.55C19.35 12.3833 20.25 10.6 20.25 8.2C20.25 6.56667 19.8833 5.33333 19.15 4.5C18.4167 3.63333 17.4667 3.05 16.3 2.75C15.1333 2.45 13.9 2.3 12.6 2.3C11.4 2.3 10.5 2.5 9.9 2.9C9.33333 3.26667 9.05 4.21667 9.05 5.75V29C9.05 30.1333 9.16667 30.9667 9.4 31.5C9.66667 32.0333 10.1333 32.3833 10.8 32.55C11.4667 32.7167 12.45 32.8167 13.75 32.85V34H1.3V32.85C2.2 32.8167 2.9 32.7167 3.4 32.55C3.93333 32.3833 4.3 32.0333 4.5 31.5C4.7 30.9667 4.8 30.1333 4.8 29V5.75C4.8 4.58333 4.66667 3.75 4.4 3.25C4.16667 2.71667 3.71667 2.36666 3.05 2.2C2.38333 2.03333 1.38333 1.93333 0.0500001 1.9V0.749999H4.8C7.1 0.749999 8.91667 0.716665 10.25 0.649997C11.5833 0.549999 12.8167 0.499999 13.95 0.499999C17.75 0.499999 20.5333 1.2 22.3 2.6C24.1 3.96667 25 5.71667 25 7.85C25 10.05 24.15 11.8667 22.45 13.3C20.7833 14.7333 18.65 15.65 16.05 16.05V16.15L26.4 28.85C27.3333 29.95 28.0833 30.8 28.65 31.4C29.25 31.9667 29.8167 32.35 30.35 32.55C30.8833 32.75 31.5167 32.85 32.25 32.85V34C31.8167 34.1333 31.3833 34.2167 30.95 34.25C30.5167 34.2833 30.1 34.3 29.7 34.3ZM42.8955 15.8C44.4422 15.8 45.8555 16.1867 47.1355 16.96C48.4422 17.7067 49.4955 18.76 50.2955 20.12C51.0955 21.48 51.4955 23.0667 51.4955 24.88C51.4955 26.48 51.2155 27.8933 50.6555 29.12C50.1222 30.32 49.4022 31.3333 48.4955 32.16C47.5889 32.96 46.5889 33.5733 45.4955 34C44.4289 34.4 43.3755 34.6 42.3355 34.6C40.8155 34.6 39.4022 34.2267 38.0955 33.48C36.7889 32.7067 35.7355 31.64 34.9355 30.28C34.1622 28.92 33.7755 27.3333 33.7755 25.52C33.7755 23.92 34.0422 22.52 34.5755 21.32C35.1355 20.0933 35.8689 19.08 36.7755 18.28C37.6822 17.4533 38.6689 16.84 39.7355 16.44C40.8022 16.0133 41.8555 15.8 42.8955 15.8ZM43.0155 33C44.5889 33 45.8289 32.44 46.7355 31.32C47.6422 30.1733 48.0955 28.4133 48.0955 26.04C48.0955 24.4133 47.8422 22.9467 47.3355 21.64C46.8555 20.3333 46.1755 19.3067 45.2955 18.56C44.4155 17.7867 43.3889 17.4 42.2155 17.4C40.6689 17.4 39.4422 17.9733 38.5355 19.12C37.6289 20.24 37.1755 21.9867 37.1755 24.36C37.1755 25.96 37.4155 27.4133 37.8955 28.72C38.4022 30.0267 39.0955 31.0667 39.9755 31.84C40.8555 32.6133 41.8689 33 43.0155 33ZM61.2618 43.4C60.1685 43.4 59.1418 43.2667 58.1818 43C57.2218 42.7333 56.4485 42.3067 55.8618 41.72C55.2751 41.1333 54.9818 40.36 54.9818 39.4C54.9818 37.7733 55.9685 36.3733 57.9418 35.2L58.8618 35.36C58.5151 35.8667 58.2485 36.4133 58.0618 37C57.8751 37.6133 57.7818 38.1867 57.7818 38.72C57.7818 39.7333 58.1418 40.52 58.8618 41.08C59.5818 41.6667 60.6751 41.96 62.1418 41.96C63.5285 41.96 64.7551 41.72 65.8218 41.24C66.9151 40.76 67.7818 40.12 68.4218 39.32C69.0618 38.52 69.3818 37.6533 69.3818 36.72C69.3818 36.1067 69.2085 35.6267 68.8618 35.28C68.5418 34.9333 67.9418 34.6933 67.0618 34.56L58.5418 33.12C57.4485 32.9067 56.9018 32.1733 56.9018 30.92C56.9018 30.2267 57.1285 29.5067 57.5818 28.76C58.0618 28.0133 58.7685 27.2667 59.7018 26.52C58.6085 26.1733 57.6751 25.6133 56.9018 24.84C56.1285 24.04 55.7418 23 55.7418 21.72C55.7418 20.4933 56.1018 19.44 56.8218 18.56C57.5418 17.68 58.4751 17 59.6218 16.52C60.7685 16.04 61.9818 15.8 63.2618 15.8C64.1951 15.8 65.1285 15.9333 66.0618 16.2C66.9951 16.4667 67.7951 16.88 68.4618 17.44C69.1285 17.28 69.6885 16.8533 70.1418 16.16C70.5951 15.4667 70.8885 14.52 71.0218 13.32H71.8618C72.1018 13.6133 72.2751 14 72.3818 14.48C72.5151 14.9333 72.5818 15.3467 72.5818 15.72C72.5818 16.52 72.3151 17.1467 71.7818 17.6C71.2751 18.0267 70.4618 18.28 69.3418 18.36C69.9018 19.16 70.1818 20.0667 70.1818 21.08C70.1818 22.28 69.8218 23.3333 69.1018 24.24C68.3818 25.12 67.4485 25.8 66.3018 26.28C65.1551 26.76 63.9418 27 62.6618 27C62.0218 27 61.3951 26.9333 60.7818 26.8C60.4085 27.12 60.1018 27.48 59.8618 27.88C59.6485 28.28 59.5418 28.68 59.5418 29.08C59.5418 29.3733 59.6218 29.64 59.7818 29.88C59.9685 30.12 60.2351 30.2667 60.5818 30.32L68.9018 31.72C70.1018 31.9067 71.0218 32.28 71.6618 32.84C72.3018 33.3733 72.6218 34.16 72.6218 35.2C72.6218 36.1333 72.3551 37.08 71.8218 38.04C71.2885 39 70.5285 39.88 69.5418 40.68C68.5551 41.5067 67.3551 42.16 65.9418 42.64C64.5551 43.1467 62.9951 43.4 61.2618 43.4ZM63.1818 25.64C64.3818 25.64 65.3151 25.2533 65.9818 24.48C66.6485 23.7067 66.9818 22.7467 66.9818 21.6C66.9818 20.2933 66.5818 19.2267 65.7818 18.4C65.0085 17.5733 63.9951 17.16 62.7418 17.16C61.5418 17.16 60.6085 17.5467 59.9418 18.32C59.2751 19.0667 58.9418 20.0267 58.9418 21.2C58.9418 22.5067 59.3418 23.5733 60.1418 24.4C60.9418 25.2267 61.9551 25.64 63.1818 25.64ZM94.8655 30.92L95.2655 31.84L88.7855 34.84L88.5455 34.6C88.5989 34.36 88.6522 33.8933 88.7055 33.2C88.7855 32.48 88.8255 31.72 88.8255 30.92H88.7455C87.7055 31.9867 86.6255 32.8667 85.5055 33.56C84.4122 34.2533 83.1722 34.6 81.7855 34.6C80.1055 34.6 78.9322 34.1733 78.2655 33.32C77.6255 32.4667 77.3055 31.36 77.3055 30V20.8C77.3055 20.1067 77.1855 19.6533 76.9455 19.44C76.7322 19.2267 76.4389 19.12 76.0655 19.12C75.5322 19.12 74.9589 19.2533 74.3455 19.52L73.9455 18.6L80.4255 15.6L80.6655 15.84C80.6389 16.0533 80.5989 16.6267 80.5455 17.56C80.5189 18.4667 80.5055 19.5333 80.5055 20.76V29C80.5055 29.9333 80.6922 30.6667 81.0655 31.2C81.4655 31.7333 82.1722 32 83.1855 32C84.0389 32 84.9189 31.8267 85.8255 31.48C86.7589 31.1067 87.7189 30.52 88.7055 29.72V20.8C88.7055 20.1067 88.5989 19.6533 88.3855 19.44C88.1722 19.2267 87.8655 19.12 87.4655 19.12C87.1189 19.12 86.7589 19.1867 86.3855 19.32C86.0122 19.4267 85.6789 19.5467 85.3855 19.68L84.9855 18.76L91.8255 15.6L92.0655 15.84C92.0389 16.0533 91.9989 16.6267 91.9455 17.56C91.9189 18.4667 91.9055 19.5333 91.9055 20.76V29.52C91.9055 30.2667 92.0122 30.7467 92.2255 30.96C92.4655 31.1733 92.7722 31.28 93.1455 31.28C93.7322 31.28 94.3055 31.16 94.8655 30.92ZM105.841 34.6C104.481 34.6 103.174 34.28 101.921 33.64C100.694 33 99.6809 32.04 98.8809 30.76C98.1075 29.4533 97.7209 27.8 97.7209 25.8C97.7209 23.7733 98.1209 22.0133 98.9209 20.52C99.7209 19.0267 100.788 17.8667 102.121 17.04C103.454 16.2133 104.908 15.8 106.481 15.8C107.628 15.8 108.681 16.0267 109.641 16.48C110.628 16.9333 111.414 17.6267 112.001 18.56C112.614 19.4933 112.921 20.68 112.921 22.12L100.921 23.68C100.921 23.8133 100.921 23.96 100.921 24.12C100.921 26.5733 101.481 28.4933 102.601 29.88C103.721 31.2667 105.214 31.96 107.081 31.96C108.148 31.96 109.134 31.7467 110.041 31.32C110.948 30.8667 111.761 30.3067 112.481 29.64L113.121 30.28C112.374 31.56 111.374 32.6 110.121 33.4C108.894 34.2 107.468 34.6 105.841 34.6ZM105.641 17.28C104.254 17.28 103.188 17.7733 102.441 18.76C101.694 19.7467 101.228 20.96 101.041 22.4L109.321 21.32C109.161 20.1733 108.814 19.2133 108.281 18.44C107.748 17.6667 106.868 17.28 105.641 17.28ZM116.997 34V33.08C117.717 33.0533 118.277 32.9733 118.677 32.84C119.077 32.7067 119.357 32.4267 119.517 32C119.704 31.5733 119.797 30.9067 119.797 30V11.4C119.797 10.4667 119.691 9.8 119.477 9.4C119.291 8.97333 118.931 8.69333 118.397 8.56C117.864 8.42667 117.064 8.34667 115.997 8.32V7.4H119.797C121.611 7.4 123.211 7.37333 124.597 7.32C126.011 7.24 127.211 7.2 128.197 7.2C131.077 7.2 133.584 7.68 135.717 8.64C137.877 9.57333 139.557 10.9733 140.757 12.84C141.957 14.7067 142.557 17.0533 142.557 19.88C142.557 22.0667 142.157 24.04 141.357 25.8C140.557 27.5333 139.464 29.0133 138.077 30.24C136.717 31.4667 135.171 32.4 133.437 33.04C131.731 33.68 129.944 34 128.077 34H116.997ZM126.877 32.56C130.931 32.56 133.904 31.48 135.797 29.32C137.717 27.1333 138.677 24.1867 138.677 20.48C138.677 17.6267 138.197 15.3333 137.237 13.6C136.304 11.8667 134.971 10.6133 133.237 9.84C131.504 9.04 129.451 8.64 127.077 8.64C125.611 8.64 124.597 8.8 124.037 9.12C123.477 9.41333 123.197 10.1733 123.197 11.4V30C123.197 31.1467 123.464 31.8667 123.997 32.16C124.557 32.4267 125.517 32.56 126.877 32.56ZM154.903 34.6C153.543 34.6 152.237 34.28 150.983 33.64C149.757 33 148.743 32.04 147.943 30.76C147.17 29.4533 146.783 27.8 146.783 25.8C146.783 23.7733 147.183 22.0133 147.983 20.52C148.783 19.0267 149.85 17.8667 151.183 17.04C152.517 16.2133 153.97 15.8 155.543 15.8C156.69 15.8 157.743 16.0267 158.703 16.48C159.69 16.9333 160.477 17.6267 161.063 18.56C161.677 19.4933 161.983 20.68 161.983 22.12L149.983 23.68C149.983 23.8133 149.983 23.96 149.983 24.12C149.983 26.5733 150.543 28.4933 151.663 29.88C152.783 31.2667 154.277 31.96 156.143 31.96C157.21 31.96 158.197 31.7467 159.103 31.32C160.01 30.8667 160.823 30.3067 161.543 29.64L162.183 30.28C161.437 31.56 160.437 32.6 159.183 33.4C157.957 34.2 156.53 34.6 154.903 34.6ZM154.703 17.28C153.317 17.28 152.25 17.7733 151.503 18.76C150.757 19.7467 150.29 20.96 150.103 22.4L158.383 21.32C158.223 20.1733 157.877 19.2133 157.343 18.44C156.81 17.6667 155.93 17.28 154.703 17.28ZM171.94 34.4C171.753 33.7067 171.567 33.1067 171.38 32.6C171.22 32.0933 170.993 31.5067 170.7 30.84L166.22 20.32C165.847 19.4133 165.5 18.76 165.18 18.36C164.887 17.96 164.567 17.6933 164.22 17.56C163.9 17.4267 163.5 17.3467 163.02 17.32V16.4H171.46V17.32C170.553 17.3467 169.913 17.44 169.54 17.6C169.167 17.7333 169.007 18.0133 169.06 18.44C169.113 18.84 169.313 19.4667 169.66 20.32L173.54 29.52H173.62L177.42 20.32C177.953 19.0667 178.047 18.2667 177.7 17.92C177.38 17.5733 176.513 17.3733 175.1 17.32V16.4H182.18V17.32C181.78 17.3467 181.42 17.44 181.1 17.6C180.78 17.7333 180.473 18.0133 180.18 18.44C179.913 18.84 179.593 19.4667 179.22 20.32L174.78 30.84C174.487 31.56 174.273 32.16 174.14 32.64C174.007 33.12 173.86 33.7067 173.7 34.4H171.94ZM182.013 7.4H203.573V13.64H202.653C202.6 12.7067 202.453 11.88 202.213 11.16C201.973 10.44 201.52 9.88 200.853 9.48C200.186 9.05333 199.173 8.84 197.813 8.84H194.493V30C194.493 30.9067 194.586 31.5733 194.773 32C194.986 32.4267 195.36 32.7067 195.893 32.84C196.453 32.9733 197.253 33.0533 198.293 33.08V34H188.293V33.08C189.013 33.0533 189.573 32.9733 189.973 32.84C190.4 32.7067 190.693 32.4267 190.853 32C191.013 31.5733 191.093 30.9067 191.093 30V8.84H187.733C186.4 8.84 185.4 9.05333 184.733 9.48C184.066 9.88 183.613 10.44 183.373 11.16C183.133 11.88 182.986 12.7067 182.933 13.64H182.013V7.4ZM212.013 34.6C210.653 34.6 209.346 34.28 208.093 33.64C206.866 33 205.853 32.04 205.053 30.76C204.279 29.4533 203.893 27.8 203.893 25.8C203.893 23.7733 204.293 22.0133 205.093 20.52C205.893 19.0267 206.959 17.8667 208.293 17.04C209.626 16.2133 211.079 15.8 212.653 15.8C213.799 15.8 214.853 16.0267 215.813 16.48C216.799 16.9333 217.586 17.6267 218.173 18.56C218.786 19.4933 219.093 20.68 219.093 22.12L207.093 23.68C207.093 23.8133 207.093 23.96 207.093 24.12C207.093 26.5733 207.653 28.4933 208.773 29.88C209.893 31.2667 211.386 31.96 213.253 31.96C214.319 31.96 215.306 31.7467 216.213 31.32C217.119 30.8667 217.933 30.3067 218.653 29.64L219.293 30.28C218.546 31.56 217.546 32.6 216.293 33.4C215.066 34.2 213.639 34.6 212.013 34.6ZM211.813 17.28C210.426 17.28 209.359 17.7733 208.613 18.76C207.866 19.7467 207.399 20.96 207.213 22.4L215.493 21.32C215.333 20.1733 214.986 19.2133 214.453 18.44C213.919 17.6667 213.039 17.28 211.813 17.28ZM230.489 34.6C229.103 34.6 227.783 34.28 226.529 33.64C225.303 32.9733 224.303 31.9867 223.529 30.68C222.756 29.3467 222.369 27.6933 222.369 25.72C222.369 23.6133 222.809 21.8267 223.689 20.36C224.596 18.8667 225.783 17.7333 227.249 16.96C228.716 16.1867 230.276 15.8 231.929 15.8C232.756 15.8 233.649 15.9067 234.609 16.12C235.596 16.3333 236.476 16.7067 237.249 17.24V22.48H236.329C236.196 21.0933 235.849 20.0267 235.289 19.28C234.729 18.5333 234.076 18.0133 233.329 17.72C232.609 17.4267 231.889 17.28 231.169 17.28C229.409 17.28 228.049 17.9467 227.089 19.28C226.129 20.5867 225.649 22.2267 225.649 24.2C225.649 25.7733 225.916 27.1467 226.449 28.32C227.009 29.4667 227.769 30.36 228.729 31C229.689 31.64 230.769 31.96 231.969 31.96C232.903 31.96 233.823 31.76 234.729 31.36C235.663 30.9333 236.503 30.36 237.249 29.64L237.889 30.28C237.143 31.5333 236.129 32.5733 234.849 33.4C233.569 34.2 232.116 34.6 230.489 34.6ZM258.357 29.96C258.357 30.8933 258.437 31.5733 258.597 32C258.784 32.4267 259.117 32.7067 259.597 32.84C260.104 32.9733 260.811 33.0533 261.717 33.08V34H252.757V33.08C253.371 33.0533 253.851 32.9733 254.197 32.84C254.544 32.7067 254.784 32.4267 254.917 32C255.077 31.5733 255.157 30.8933 255.157 29.96V21.36C255.157 20.4267 254.957 19.6933 254.557 19.16C254.157 18.6267 253.437 18.36 252.397 18.36C251.544 18.36 250.624 18.5467 249.637 18.92C248.677 19.2933 247.691 19.88 246.677 20.68V29.96C246.677 30.8933 246.771 31.5733 246.957 32C247.144 32.4267 247.477 32.7067 247.957 32.84C248.464 32.9733 249.171 33.0533 250.077 33.08V34H241.077V33.08C241.691 33.0533 242.171 32.9733 242.517 32.84C242.864 32.7067 243.104 32.4267 243.237 32C243.397 31.5733 243.477 30.8933 243.477 29.96V7.72C243.477 6.97333 243.371 6.49333 243.157 6.28C242.944 6.06667 242.637 5.96 242.237 5.96C241.891 5.96 241.517 6.01333 241.117 6.12C240.744 6.22667 240.397 6.36 240.077 6.52L239.677 5.6L246.597 2.4L246.837 2.64C246.811 2.85333 246.771 3.42667 246.717 4.36C246.691 5.29333 246.677 6.4 246.677 7.68V19.44C247.717 18.3733 248.824 17.5067 249.997 16.84C251.171 16.1467 252.451 15.8 253.837 15.8C255.491 15.8 256.651 16.2267 257.317 17.08C258.011 17.9067 258.357 19.0133 258.357 20.4V29.96Z" fill="black"/>
</svg>
