<svg width="100" height="100" viewBox="0 0 100 100" fill="none" xmlns="http://www.w3.org/2000/svg">
<circle cx="50" cy="50" r="50" fill="#DCDCFF"/>
<path d="M73.7236 71.0263L61.7929 59.0979C65.2509 54.9463 66.9752 49.6214 66.6072 44.2309C66.2392 38.8404 63.8071 33.7992 59.8169 30.1562C55.8267 26.5131 50.5856 24.5487 45.184 24.6714C39.7823 24.7942 34.6359 26.9947 30.8153 30.8153C26.9947 34.6359 24.7942 39.7823 24.6714 45.184C24.5487 50.5856 26.5131 55.8267 30.1562 59.8169C33.7992 63.8071 38.8404 66.2392 44.2309 66.6072C49.6214 66.9752 54.9463 65.2509 59.0979 61.7929L71.0263 73.7236C71.2034 73.9007 71.4136 74.0412 71.645 74.1371C71.8764 74.2329 72.1245 74.2822 72.3749 74.2822C72.6254 74.2822 72.8734 74.2329 73.1048 74.1371C73.3362 74.0412 73.5465 73.9007 73.7236 73.7236C73.9007 73.5465 74.0412 73.3362 74.1371 73.1048C74.2329 72.8734 74.2822 72.6254 74.2822 72.3749C74.2822 72.1245 74.2329 71.8764 74.1371 71.645C74.0412 71.4136 73.9007 71.2034 73.7236 71.0263ZM28.5312 45.6874C28.5312 42.2942 29.5374 38.9773 31.4225 36.1559C33.3077 33.3346 35.9871 31.1356 39.122 29.8371C42.2569 28.5386 45.7065 28.1989 49.0345 28.8608C52.3624 29.5228 55.4194 31.1568 57.8187 33.5561C60.2181 35.9555 61.8521 39.0124 62.514 42.3404C63.176 45.6684 62.8363 49.118 61.5377 52.2528C60.2392 55.3877 58.0403 58.0672 55.2189 59.9523C52.3976 61.8375 49.0806 62.8437 45.6874 62.8437C41.1389 62.8386 36.778 61.0295 33.5617 57.8132C30.3454 54.5968 28.5362 50.236 28.5312 45.6874Z" fill="#01004D"/>
</svg>
