<svg width="50" height="50" viewBox="0 0 50 50" fill="none" xmlns="http://www.w3.org/2000/svg">
<path d="M5 26.25C5 25.7575 5.097 25.2699 5.28545 24.8149C5.47391 24.36 5.75013 23.9466 6.09835 23.5983C6.44657 23.2501 6.85997 22.9739 7.31494 22.7855C7.76991 22.597 8.25754 22.5 8.75 22.5C9.24246 22.5 9.73009 22.597 10.1851 22.7855C10.64 22.9739 11.0534 23.2501 11.4017 23.5983C11.7499 23.9466 12.0261 24.36 12.2145 24.8149C12.403 25.2699 12.5 25.7575 12.5 26.25V41.25C12.5 42.2446 12.1049 43.1984 11.4017 43.9016C10.6984 44.6049 9.74456 45 8.75 45C7.75544 45 6.80161 44.6049 6.09835 43.9016C5.39509 43.1984 5 42.2446 5 41.25V26.25ZM15 25.8325V39.4075C14.9996 40.3367 15.258 41.2476 15.7464 42.038C16.2348 42.8284 16.9338 43.4672 17.765 43.8825L17.89 43.945C19.2772 44.6383 20.8067 44.9995 22.3575 45H35.8975C37.0538 45.0005 38.1746 44.6001 39.0689 43.8671C39.9632 43.1342 40.5759 42.1139 40.8025 40.98L43.8025 25.98C43.9475 25.2547 43.9297 24.5062 43.7505 23.7886C43.5713 23.071 43.2351 22.402 42.7662 21.83C42.2972 21.258 41.7072 20.7972 41.0387 20.4807C40.3701 20.1643 39.6397 20.0001 38.9 20H30V10C30 8.67392 29.4732 7.40215 28.5355 6.46447C27.5979 5.52678 26.3261 5 25 5C24.337 5 23.7011 5.26339 23.2322 5.73223C22.7634 6.20107 22.5 6.83696 22.5 7.5V9.1675C22.5 11.3312 21.7982 13.4365 20.5 15.1675L17 19.8325C15.7018 21.5635 15 23.6688 15 25.8325Z" fill="#01004D"/>
</svg>
